<svg xmlns="http://www.w3.org/2000/svg" width="35" height="35" fill="none" overflow="visible"><path fill="#FFF" d="M29.581 20.256c-1.254 5.52-6.183 9.64-12.082 9.64a12.34 12.34 0 0 1-8.155-3.066c3.062-.369 6.67-1.181 10.409-2.396l1.504-.509c3.144-1.102 5.995-2.371 8.324-3.667ZM17.499 5.104a12.37 12.37 0 0 1 9.738 4.732c1.66-.128 3.131-.1 4.297.121 1.201.229 2.541.756 2.953 2.023s-.363 2.481-1.202 3.372c-.913.97-2.278 1.969-3.933 2.94-2.659 1.559-6.198 3.121-10.165 4.408-3.969 1.291-7.749 2.108-10.816 2.41-1.911.186-3.602.18-4.909-.067-1.203-.229-2.543-.756-2.956-2.023-.41-1.268.365-2.481 1.203-3.372.812-.865 1.988-1.751 3.405-2.622.254-6.656 5.724-11.921 12.385-11.922M5.269 19.53c-.841.578-1.502 1.123-1.967 1.617-.779.829-.718 1.184-.715 1.198.006.014.171.338 1.283.548.664.127 1.52.178 2.539.15a12.3 12.3 0 0 1-1.14-3.514Zm25.856-7.423c-.666-.127-1.521-.179-2.542-.152a12.3 12.3 0 0 1 1.141 3.515c.841-.579 1.505-1.123 1.968-1.617.782-.832.718-1.187.715-1.198-.01-.021-.181-.339-1.283-.548Z"/><path fill="transparent" d="M0 0h35v35H0Z"/></svg>